<svg width="29" height="29" viewBox="0 0 29 29" fill="none" xmlns="http://www.w3.org/2000/svg">
<path fill-rule="evenodd" clip-rule="evenodd" d="M14.4999 26.1C17.5764 26.1 20.5269 24.8779 22.7023 22.7024C24.8778 20.527 26.0999 17.5765 26.0999 14.5C26.0999 11.4235 24.8778 8.47298 22.7023 6.29756C20.5269 4.12214 17.5764 2.9 14.4999 2.9C11.4234 2.9 8.47289 4.12214 6.29746 6.29756C4.12204 8.47298 2.8999 11.4235 2.8999 14.5C2.8999 17.5765 4.12204 20.527 6.29746 22.7024C8.47289 24.8779 11.4234 26.1 14.4999 26.1ZM15.9499 10.15C15.9499 9.76544 15.7971 9.39662 15.5252 9.1247C15.2533 8.85277 14.8845 8.7 14.4999 8.7C14.1153 8.7 13.7465 8.85277 13.4746 9.1247C13.2027 9.39662 13.0499 9.76544 13.0499 10.15V13.05H10.1499C9.76534 13.05 9.39653 13.2028 9.1246 13.4747C8.85267 13.7466 8.6999 14.1154 8.6999 14.5C8.6999 14.8846 8.85267 15.2534 9.1246 15.5253C9.39653 15.7972 9.76534 15.95 10.1499 15.95H13.0499V18.85C13.0499 19.2346 13.2027 19.6034 13.4746 19.8753C13.7465 20.1472 14.1153 20.3 14.4999 20.3C14.8845 20.3 15.2533 20.1472 15.5252 19.8753C15.7971 19.6034 15.9499 19.2346 15.9499 18.85V15.95H18.8499C19.2345 15.95 19.6033 15.7972 19.8752 15.5253C20.1471 15.2534 20.2999 14.8846 20.2999 14.5C20.2999 14.1154 20.1471 13.7466 19.8752 13.4747C19.6033 13.2028 19.2345 13.05 18.8499 13.05H15.9499V10.15Z" fill="#262626"/>
</svg>
